<svg version="1.1" id="Layer_1" xmlns="http://www.w3.org/2000/svg" xmlns:xlink="http://www.w3.org/1999/xlink" x="0px" y="0px"
	 width="100%" viewBox="0 0 512 512" enable-background="new 0 0 512 512" xml:space="preserve">
<path fill="#006699" opacity="1.000000" stroke="none" 
	d="
M1.000000,309.000000 
	C1.000000,272.645782 1.000000,236.291550 1.421066,199.412872 
	C2.222589,198.076553 2.854476,197.291916 2.945811,196.448700 
	C4.328558,183.683228 5.683091,170.914307 6.959097,158.137711 
	C9.007937,137.622772 13.506959,117.633072 20.102663,98.135979 
	C25.620663,81.824600 32.916130,66.362648 44.321907,53.229553 
	C57.581848,37.961487 74.766716,28.642544 93.509552,22.050362 
	C127.613678,10.055343 163.037888,5.135729 198.943954,2.924427 
	C200.330215,2.839052 201.649506,1.666150 203.000000,1.000003 
	C239.354233,1.000000 275.708466,1.000000 312.471802,1.427433 
	C313.726471,2.230129 314.543793,2.840661 315.421753,2.946095 
	C335.189667,5.320037 355.026947,7.208122 374.721283,10.078924 
	C398.122803,13.490120 420.617432,20.384218 441.594452,31.403938 
	C452.585876,37.178013 462.674530,44.610085 470.592102,54.336380 
	C482.596527,69.083145 490.422943,86.115669 496.067169,104.144333 
	C505.318146,133.693588 509.182190,164.155991 511.072937,194.941635 
	C511.178497,196.660721 512.333435,198.315369 513.000000,200.000000 
	C513.000000,230.020889 513.000000,260.041779 512.571777,290.472687 
	C511.763855,292.060944 511.138702,293.219757 511.043518,294.420563 
	C510.313232,303.633362 510.037994,312.895996 508.951477,322.063782 
	C506.863434,339.682434 504.949188,357.358643 501.834686,374.809631 
	C497.757385,397.655670 490.937439,419.712097 479.956726,440.378571 
	C466.448334,465.802399 444.804077,481.272705 418.770294,491.629456 
	C401.150757,498.638824 382.912781,503.365723 364.171906,506.039398 
	C350.832611,507.942413 337.420349,509.331177 324.057159,511.075714 
	C322.972839,511.217255 322.016052,512.335571 321.000000,513.000000 
	C281.312439,513.000000 241.624878,513.000000 201.528976,512.573181 
	C195.663239,511.432526 190.212494,510.662628 184.747101,510.016357 
	C172.809280,508.604645 160.671280,508.161682 148.966431,505.671448 
	C130.866302,501.820618 112.823799,497.332520 95.194862,491.735168 
	C77.141090,486.002960 60.607071,476.881775 47.417572,462.838135 
	C35.484390,450.132233 27.840778,434.784821 22.070070,418.550110 
	C9.949864,384.452362 5.350473,348.946930 2.925504,313.059418 
	C2.831570,311.669281 1.666146,310.351501 1.000000,309.000000 
M367.001740,144.502243 
	C354.736725,133.234253 342.599365,121.823189 330.174011,110.734871 
	C315.000153,97.193832 298.452271,85.628319 279.759888,77.368713 
	C269.436371,72.807045 258.580200,70.560448 247.415329,72.411896 
	C231.674286,75.022202 218.036392,82.862091 205.040558,91.620041 
	C184.159439,105.691925 165.612045,122.650978 147.580872,140.102539 
	C137.108490,150.238281 127.588326,161.353226 117.540184,171.933029 
	C103.294212,186.932800 90.825356,203.311508 80.550888,221.219543 
	C73.977356,232.676987 68.780479,244.917709 69.069427,258.543579 
	C69.293129,269.092834 72.946541,278.840240 77.630692,288.153046 
	C89.309021,311.371307 105.891525,331.090546 123.556679,349.746155 
	C138.609894,365.643372 154.962570,380.320496 170.908401,395.359222 
	C186.778564,410.326569 204.071884,423.515778 223.023804,434.314880 
	C234.033905,440.588623 245.565155,445.947632 258.751526,446.024200 
	C269.820953,446.088470 279.734253,441.976318 289.279144,437.207245 
	C315.696014,424.008057 337.739838,404.761017 358.718506,384.474548 
	C375.032227,368.699158 390.265350,351.768585 405.459686,334.884338 
	C419.296112,319.509003 430.736938,302.423309 438.442474,283.063599 
	C442.093445,273.890686 444.226990,264.373260 442.654816,254.517349 
	C440.359772,240.129822 433.590118,227.524002 425.890045,215.404922 
	C409.412018,189.470337 388.327087,167.342209 367.001740,144.502243 
z"/>
<path fill="#ffffff" opacity="1.000000" stroke="none" 
	d="
M321.468658,513.000000 
	C322.016052,512.335571 322.972839,511.217255 324.057159,511.075714 
	C337.420349,509.331177 350.832611,507.942413 364.171906,506.039398 
	C382.912781,503.365723 401.150757,498.638824 418.770294,491.629456 
	C444.804077,481.272705 466.448334,465.802399 479.956726,440.378571 
	C490.937439,419.712097 497.757385,397.655670 501.834686,374.809631 
	C504.949188,357.358643 506.863434,339.682434 508.951477,322.063782 
	C510.037994,312.895996 510.313232,303.633362 511.043518,294.420563 
	C511.138702,293.219757 511.763855,292.060944 512.571777,290.941345 
	C513.000000,364.921722 513.000000,438.843475 513.000000,513.000000 
	C449.312622,513.000000 385.624969,513.000000 321.468658,513.000000 
z"/>
<path fill="#ffffff" opacity="1.000000" stroke="none" 
	d="
M1.000000,309.468658 
	C1.666146,310.351501 2.831570,311.669281 2.925504,313.059418 
	C5.350473,348.946930 9.949864,384.452362 22.070070,418.550110 
	C27.840778,434.784821 35.484390,450.132233 47.417572,462.838135 
	C60.607071,476.881775 77.141090,486.002960 95.194862,491.735168 
	C112.823799,497.332520 130.866302,501.820618 148.966431,505.671448 
	C160.671280,508.161682 172.809280,508.604645 184.747101,510.016357 
	C190.212494,510.662628 195.663239,511.432526 201.060318,512.573181 
	C134.405579,513.000000 67.811172,513.000000 1.000000,513.000000 
	C1.000000,445.312592 1.000000,377.624969 1.000000,309.468658 
z"/>
<path fill="#ffffff" opacity="1.000000" stroke="none" 
	d="
M202.531342,1.000003 
	C201.649506,1.666150 200.330215,2.839052 198.943954,2.924427 
	C163.037888,5.135729 127.613678,10.055343 93.509552,22.050362 
	C74.766716,28.642544 57.581848,37.961487 44.321907,53.229553 
	C32.916130,66.362648 25.620663,81.824600 20.102663,98.135979 
	C13.506959,117.633072 9.007937,137.622772 6.959097,158.137711 
	C5.683091,170.914307 4.328558,183.683228 2.945811,196.448700 
	C2.854476,197.291916 2.222589,198.076553 1.421066,198.944214 
	C1.000000,133.072235 1.000000,67.144478 1.000000,1.000000 
	C68.020737,1.000000 135.041718,1.000000 202.531342,1.000003 
z"/>
<path fill="#ffffff" opacity="1.000000" stroke="none" 
	d="
M513.000000,199.531342 
	C512.333435,198.315369 511.178497,196.660721 511.072937,194.941635 
	C509.182190,164.155991 505.318146,133.693588 496.067169,104.144333 
	C490.422943,86.115669 482.596527,69.083145 470.592102,54.336380 
	C462.674530,44.610085 452.585876,37.178013 441.594452,31.403938 
	C420.617432,20.384218 398.122803,13.490120 374.721283,10.078924 
	C355.026947,7.208122 335.189667,5.320037 315.421753,2.946095 
	C314.543793,2.840661 313.726471,2.230129 312.940460,1.427433 
	C379.593506,1.000000 446.187012,1.000000 513.000000,1.000000 
	C513.000000,67.020729 513.000000,133.041702 513.000000,199.531342 
z"/>
<path fill="#ffffff" opacity="1.000000" stroke="none" 
	d="
M367.252869,144.752777 
	C388.327087,167.342209 409.412018,189.470337 425.890045,215.404922 
	C433.590118,227.524002 440.359772,240.129822 442.654816,254.517349 
	C444.226990,264.373260 442.093445,273.890686 438.442474,283.063599 
	C430.736938,302.423309 419.296112,319.509003 405.459686,334.884338 
	C390.265350,351.768585 375.032227,368.699158 358.718506,384.474548 
	C337.739838,404.761017 315.696014,424.008057 289.279144,437.207245 
	C279.734253,441.976318 269.820953,446.088470 258.751526,446.024200 
	C245.565155,445.947632 234.033905,440.588623 223.023804,434.314880 
	C204.071884,423.515778 186.778564,410.326569 170.908401,395.359222 
	C154.962570,380.320496 138.609894,365.643372 123.556679,349.746155 
	C105.891525,331.090546 89.309021,311.371307 77.630692,288.153046 
	C72.946541,278.840240 69.293129,269.092834 69.069427,258.543579 
	C68.780479,244.917709 73.977356,232.676987 80.550888,221.219543 
	C90.825356,203.311508 103.294212,186.932800 117.540184,171.933029 
	C127.588326,161.353226 137.108490,150.238281 147.580872,140.102539 
	C165.612045,122.650978 184.159439,105.691925 205.040558,91.620041 
	C218.036392,82.862091 231.674286,75.022202 247.415329,72.411896 
	C258.580200,70.560448 269.436371,72.807045 279.759888,77.368713 
	C298.452271,85.628319 315.000153,97.193832 330.174011,110.734871 
	C342.599365,121.823189 354.736725,133.234253 367.252869,144.752777 
z"/>
</svg>